<?xml version="1.0" standalone="no"?>
<!DOCTYPE svg PUBLIC "-//W3C//DTD SVG 20010904//EN"
 "http://www.w3.org/TR/2001/REC-SVG-20010904/DTD/svg10.dtd">
<svg version="1.0" xmlns="http://www.w3.org/2000/svg"
 width="225.000000pt" height="225.000000pt" viewBox="0 0 225.000000 225.000000"
 preserveAspectRatio="xMidYMid meet">
<metadata>
Created by potrace 1.14, written by Peter Selinger 2001-2017
</metadata>
<g transform="translate(0.000000,225.000000) scale(0.100000,-0.100000)"
fill="#000000" stroke="none">
<path d="M0 1125 l0 -1125 1125 0 1125 0 0 1125 0 1125 -1125 0 -1125 0 0
-1125z m2018 -12 l-3 -888 -890 0 -890 0 -3 875 c-1 481 0 881 3 888 3 9 192
12 895 12 l890 0 -2 -887z"/>
<path d="M500 1115 l0 -625 625 0 625 0 0 625 0 625 -625 0 -625 0 0 -625z
m878 360 c47 -20 78 -50 105 -100 21 -38 22 -52 22 -340 l0 -300 -306 0 -306
0 -49 30 c-28 18 -58 47 -71 70 -22 38 -23 50 -23 273 0 209 2 237 19 270 24
46 56 76 101 96 52 22 454 23 508 1z"/>
</g>
</svg>
